<svg width="198" height="202" viewBox="0 0 198 202" fill="none" xmlns="http://www.w3.org/2000/svg">
<path d="M127.164 43.1856L102.779 0.800049L48.8511 94.0632C48.8511 94.0632 45.1284 101.658 43.6931 103.213L38.1464 113.006C38.7743 112.707 40.4637 110.853 41.002 110.315C41.585 109.373 44.3808 105.082 44.7845 104.065C44.2014 105.516 44.8892 105.142 43.9473 108.79C44.5005 106.607 45.861 106.144 47.2364 104.305C49.1053 100.417 46.9374 102.286 49.7033 98.9222C49.9725 99.7445 48.4774 103.497 47.984 105.067C49.9276 103.587 51.3031 99.1465 51.5273 98.683C51.5722 98.6232 51.7964 99.2213 51.8413 99.1465C51.6619 99.6997 51.5124 99.8642 51.2881 100.402C51.3928 100.672 50.6004 103.647 50.7798 103.901C51.2732 104.14 52.7683 102.032 52.6486 102.884C52.5141 106.188 49.0455 108.476 49.6734 110.823C49.8977 111.66 53.2616 104.424 53.3065 105.65C53.3812 107.399 55.878 98.698 53.9195 109.164C53.7849 109.911 56.0724 105.097 56.3864 104.663C59.5111 100.387 58.5841 102.72 58.5841 102.72C58.8532 104.334 62.0976 97.5617 62.2172 97.6813C62.7853 98.2495 61.5294 101.554 63.8767 98.384L102.883 30.6718L113.708 49.6892L127.119 43.1707L127.164 43.1856Z" fill="white"/>
<path d="M104.229 165.947H198L164.57 108.072L155.51 112.438L153.536 118.358L172.614 151.34H119.314C121.093 152.058 121.377 152.132 122.02 152.117C126.46 151.998 126.027 152.76 125.952 152.82C125.653 153.014 129.137 153.882 129.137 153.896C129.271 154.255 131.559 153.717 133.248 154.031C133.353 154.36 131.155 154.225 130.796 154.39C130.647 154.465 129.57 155.122 129.735 155.152C132.68 155.735 135.057 155.406 135.954 155.9C133.517 156.378 123.141 155.317 122.14 156.064C121.96 156.797 125.997 156.124 127.866 157.26C124.636 157.574 124.278 157.485 122.917 158.053C121.9 158.471 119.568 157.559 119.852 158.591C118.836 158.427 112.676 159.488 112.317 159.742C111.973 159.981 120.809 159.563 125.16 159.877C124.651 160.565 118.641 159.952 117.909 160.415C116.802 161.103 114.186 162.882 112.392 163.555C112.123 163.659 123.186 164.078 122.319 164.138C107.877 165.184 107.219 164.616 104.258 165.962L104.229 165.947Z" fill="white"/>
<path d="M88.4412 70.456L53.7703 166.306L63.264 183.514L100.103 81.6093L171.403 46.4449L167.74 56.6115L106.278 86.9018L99.146 106.771L179.671 67.1518L197.806 16.7377L88.4412 70.456Z" fill="white"/>
<path d="M40.0905 139.678L58.2707 130.738L65.3873 110.778L29.5502 128.435L18.7706 147.079L5.88301 153.538C-0.770101 157.036 -1.712 166.186 4.08891 170.97L14.0312 179.178V173.318C14.0312 169.58 17.0513 165.767 20.789 165.708H45.6821L51.0046 151.071H33.5271L40.1204 139.678H40.0905Z" fill="white"/>
<path d="M65.1929 201.216L84.4047 191.737L96.3653 158.068L138.646 137.316L145.823 117.387L103.512 138.198L107.294 127.777L159.473 102.062L166.754 81.9831L95.3636 117.237L65.1929 201.216Z" fill="white"/>
<path d="M187.73 171.508H189.21V175.545H190.301V171.508H191.796V170.582H187.73V171.508Z" fill="white"/>
<path d="M195.07 174.005H195.055L193.889 170.582H192.364V175.545H193.381V172.062H193.396L194.607 175.545H195.459L196.67 172.032H196.685V175.545H197.702V170.582H196.177L195.07 174.005Z" fill="white"/>
</svg>
