<svg width="102" height="90" viewBox="0 0 102 90" fill="none" xmlns="http://www.w3.org/2000/svg">
<path fill-rule="evenodd" clip-rule="evenodd" d="M20.366 7.17067C20.5843 7.1449 20.7998 7.14325 21.01 7.1636C21.1047 7.15459 21.2007 7.14998 21.2978 7.14998H97.5678C99.0885 7.14998 100.369 8.28786 100.547 9.7981L97.5678 10.15C100.547 9.7981 100.547 9.80015 100.547 9.80015L100.548 9.80326L100.549 9.81264L100.552 9.84391L100.565 9.95583C100.575 10.0521 100.59 10.1914 100.608 10.3713C100.645 10.7312 100.694 11.2541 100.748 11.9218C100.857 13.257 100.985 15.1736 101.067 17.5262C101.232 22.2252 101.215 28.6959 100.483 35.7654C99.0395 49.7002 94.7301 66.8389 82.5948 76.7441C82.0592 77.1812 81.3891 77.42 80.6978 77.42H3.84782C2.57901 77.42 1.4474 76.6218 1.02171 75.4265C0.596011 74.2312 0.968293 72.8974 1.95145 72.0954C12.1254 63.7957 16.2511 48.8001 17.665 35.1509C18.3614 28.4284 18.3791 22.245 18.2211 17.7379C18.1422 15.4875 18.0198 13.663 17.9178 12.4079C17.8669 11.7805 17.8211 11.2959 17.7885 10.9721C17.7723 10.8102 17.7593 10.6886 17.7506 10.6095L17.7409 10.5229L17.7385 10.5018L17.7384 10.5008C17.5447 8.85575 18.7209 7.36493 20.366 7.17067ZM23.9905 13.15C24.0735 14.3426 24.1575 15.8203 24.2174 17.5277C24.3822 22.2274 24.3655 28.699 23.6331 35.7691C22.4229 47.4521 19.1985 61.3867 11.037 71.42H79.599C89.1928 62.9952 93.1387 48.4322 94.515 35.1471C95.2114 28.4253 95.2291 22.2429 95.0711 17.7365C95.0065 15.8968 94.9129 14.3419 94.8252 13.15H23.9905Z" fill="#5C626B"/>
<path fill-rule="evenodd" clip-rule="evenodd" d="M18.7578 27.58C18.7578 25.9231 20.101 24.58 21.7578 24.58H98.0478C99.7047 24.58 101.048 25.9231 101.048 27.58C101.048 29.2368 99.7047 30.58 98.0478 30.58H21.7578C20.101 30.58 18.7578 29.2368 18.7578 27.58Z" fill="#5C626B"/>
<path fill-rule="evenodd" clip-rule="evenodd" d="M80.6978 0.599976C82.3547 0.599976 83.6978 1.94312 83.6978 3.59998V15.7C83.6978 17.3568 82.3547 18.7 80.6978 18.7C79.041 18.7 77.6978 17.3568 77.6978 15.7V3.59998C77.6978 1.94312 79.041 0.599976 80.6978 0.599976Z" fill="#5C626B"/>
<path fill-rule="evenodd" clip-rule="evenodd" d="M59.8978 0.599976C61.5547 0.599976 62.8978 1.94312 62.8978 3.59998V15.7C62.8978 17.3568 61.5547 18.7 59.8978 18.7C58.241 18.7 56.8978 17.3568 56.8978 15.7V3.59998C56.8978 1.94312 58.241 0.599976 59.8978 0.599976Z" fill="#5C626B"/>
<path fill-rule="evenodd" clip-rule="evenodd" d="M39.2878 0.599976C40.9447 0.599976 42.2878 1.94312 42.2878 3.59998V15.7C42.2878 17.3568 40.9447 18.7 39.2878 18.7C37.631 18.7 36.2878 17.3568 36.2878 15.7V3.59998C36.2878 1.94312 37.631 0.599976 39.2878 0.599976Z" fill="#5C626B"/>
<path fill-rule="evenodd" clip-rule="evenodd" d="M98.1478 21.25C99.8047 21.25 101.148 22.5931 101.148 24.25V86.4C101.148 88.0568 99.8047 89.4 98.1478 89.4H21.7578C20.101 89.4 18.7578 88.0568 18.7578 86.4V75.33C18.7578 73.6731 20.101 72.33 21.7578 72.33C23.4147 72.33 24.7578 73.6731 24.7578 75.33V83.4H95.1478V24.25C95.1478 22.5931 96.491 21.25 98.1478 21.25Z" fill="#5C626B"/>
</svg>
