<svg width="78" height="77" viewBox="0 0 78 77" fill="none" xmlns="http://www.w3.org/2000/svg">
<path d="M7 67.2C6.99973 62.273 8.42123 57.4507 11.0939 53.3116C13.7666 49.1726 17.5769 45.8927 22.0675 43.8656C26.5582 41.8386 31.5384 41.1504 36.4104 41.8838C41.2825 42.6171 45.8395 44.7408 49.5344 48" stroke="white" stroke-width="4.8" stroke-linecap="round" stroke-linejoin="round"/>
<path d="M32.6 41.6C41.4365 41.6 48.6 34.4365 48.6 25.6C48.6 16.7634 41.4365 9.59998 32.6 9.59998C23.7634 9.59998 16.6 16.7634 16.6 25.6C16.6 34.4365 23.7634 41.6 32.6 41.6Z" stroke="white" stroke-width="4.8" stroke-linecap="round" stroke-linejoin="round"/>
<path d="M51.8 60.8L58.2 67.2L71 54.4" stroke="white" stroke-width="4.8" stroke-linecap="round" stroke-linejoin="round"/>
</svg>
