<svg width="20" height="20" viewBox="0 0 20 20" fill="none" xmlns="http://www.w3.org/2000/svg">
<path d="M10 13L2 8L10 3L18 8L10 13Z" fill="#C3C3C3"/>
<path d="M1 8.06C1.00027 7.88887 1.04445 7.72066 1.12831 7.57149C1.21218 7.42232 1.33293 7.29716 1.479 7.208L10 2L18.521 7.208C18.6671 7.29716 18.7878 7.42232 18.8717 7.57149C18.9556 7.72066 18.9997 7.88887 19 8.06V18C19 18.2652 18.8946 18.5196 18.7071 18.7071C18.5196 18.8946 18.2652 19 18 19H2C1.73478 19 1.48043 18.8946 1.29289 18.7071C1.10536 18.5196 1 18.2652 1 18V8.06Z" stroke="#1D2849" stroke-width="2"/>
<path d="M1 8.5L10 14L19 8.5" stroke="#1D2849" stroke-width="2" stroke-linecap="round"/>
</svg>
