<svg width="32" height="32" viewBox="0 0 32 32" fill="none" xmlns="http://www.w3.org/2000/svg">
<path d="M31.2544 15.6289C31.2544 23.5221 25.4037 30.0477 17.8031 31.1066C17.0924 31.2052 16.3653 31.2566 15.6272 31.2566C14.7753 31.2566 13.9387 31.1887 13.124 31.0573C5.68322 29.8593 0 23.4072 0 15.6289C0 6.99751 6.99726 0 15.6283 0C24.2594 0 31.2566 6.99751 31.2566 15.6289H31.2544Z" fill="white"/>
<path d="M17.803 12.5494V15.954H22.0145L21.3477 20.5401H17.803V31.1065C17.0924 31.205 16.3653 31.2565 15.6272 31.2565C14.7753 31.2565 13.9387 31.1886 13.124 31.0572V20.5401H9.23987V15.954H13.124V11.7883C13.124 9.20394 15.2188 7.10797 17.8041 7.10797V7.11016C17.8118 7.11016 17.8184 7.10797 17.826 7.10797H22.0156V11.0743H19.278C18.4644 11.0743 17.8041 11.7347 17.8041 12.5483L17.803 12.5494Z" fill="#0B2B35"/>
</svg>
