<svg width="33" height="32" viewBox="0 0 33 32" fill="none" xmlns="http://www.w3.org/2000/svg">
<path d="M16.5489 0H16.4777C7.86605 0 0.884949 6.9811 0.884949 15.5927V15.6639C0.884949 24.2755 7.86605 31.2566 16.4777 31.2566H16.5489C25.1605 31.2566 32.1416 24.2755 32.1416 15.6639V15.5927C32.1416 6.9811 25.1605 0 16.5489 0Z" fill="white"/>
<path d="M21.3491 6.35889H11.6774C9.00544 6.35889 6.83173 8.5326 6.83173 11.2046V20.0528C6.83173 22.7247 9.00544 24.8984 11.6774 24.8984H21.3491C24.0211 24.8984 26.1948 22.7247 26.1948 20.0528V11.2046C26.1948 8.5326 24.0211 6.35889 21.3491 6.35889ZM8.54113 11.2046C8.54113 9.47546 9.9483 8.06829 11.6774 8.06829H21.3491C23.0782 8.06829 24.4854 9.47546 24.4854 11.2046V20.0528C24.4854 21.7819 23.0782 23.189 21.3491 23.189H11.6774C9.9483 23.189 8.54113 21.7819 8.54113 20.0528V11.2046Z" fill="#0B2B35"/>
<path d="M16.5132 20.1347C18.9979 20.1347 21.0205 18.1132 21.0205 15.6274C21.0205 13.1416 18.999 11.1201 16.5132 11.1201C14.0274 11.1201 12.0059 13.1416 12.0059 15.6274C12.0059 18.1132 14.0274 20.1347 16.5132 20.1347ZM16.5132 12.8306C18.0561 12.8306 19.3111 14.0856 19.3111 15.6285C19.3111 17.1715 18.0561 18.4264 16.5132 18.4264C14.9702 18.4264 13.7153 17.1715 13.7153 15.6285C13.7153 14.0856 14.9702 12.8306 16.5132 12.8306Z" fill="#0B2B35"/>
<path d="M21.4376 11.8486C22.1067 11.8486 22.6521 11.3043 22.6521 10.6341C22.6521 9.96393 22.1078 9.41968 21.4376 9.41968C20.7675 9.41968 20.2232 9.96393 20.2232 10.6341C20.2232 11.3043 20.7675 11.8486 21.4376 11.8486Z" fill="#0B2B35"/>
</svg>
