<svg width="40" height="40" viewBox="0 0 40 40" fill="none" xmlns="http://www.w3.org/2000/svg">
<g clip-path="url(#clip0_2662_50935)">
<path d="M26.0099 34.5092C34.0236 31.1898 37.829 22.0026 34.5097 13.9889C31.1903 5.97525 22.0031 2.16977 13.9894 5.48914C5.97573 8.80851 2.17025 17.9957 5.48962 26.0094C8.80899 34.0231 17.9962 37.8286 26.0099 34.5092Z" stroke="#92201E" stroke-width="0.912052" stroke-linecap="round" stroke-linejoin="round"/>
<path d="M20 31.6378C26.4273 31.6378 31.6378 26.4273 31.6378 20C31.6378 13.5726 26.4273 8.36218 20 8.36218C13.5726 8.36218 8.36218 13.5726 8.36218 20C8.36218 26.4273 13.5726 31.6378 20 31.6378Z" stroke="#92201E" stroke-width="0.912052" stroke-linecap="round" stroke-linejoin="round"/>
<path d="M20 0.456055V12.2007" stroke="#92201E" stroke-width="0.912052" stroke-linecap="round" stroke-linejoin="round"/>
<path d="M0.456055 20H12.2007" stroke="#92201E" stroke-width="0.912052" stroke-linecap="round" stroke-linejoin="round"/>
<path d="M20 39.5439V27.7993" stroke="#92201E" stroke-width="0.912052" stroke-linecap="round" stroke-linejoin="round"/>
<path d="M39.5439 20H27.7993" stroke="#92201E" stroke-width="0.912052" stroke-linecap="round" stroke-linejoin="round"/>
<path d="M17.3451 20.5938C16.8417 20.5938 16.4294 20.3968 16.1084 20.0028C15.7947 19.6014 15.6378 19.0396 15.6378 18.3173C15.6378 17.5949 15.7947 17.0404 16.1084 16.6537C16.4294 16.2597 16.8417 16.0627 17.3451 16.0627C17.8486 16.0627 18.2572 16.2597 18.5709 16.6537C18.892 17.0404 19.0525 17.5949 19.0525 18.3173C19.0525 19.0396 18.892 19.6014 18.5709 20.0028C18.2572 20.3968 17.8486 20.5938 17.3451 20.5938ZM17.3451 19.8605C17.5786 19.8605 17.7683 19.7401 17.9143 19.4993C18.0675 19.2512 18.1441 18.8572 18.1441 18.3173C18.1441 17.7773 18.0675 17.3906 17.9143 17.1571C17.7683 16.9164 17.5786 16.796 17.3451 16.796C17.1117 16.796 16.9183 16.9164 16.7651 17.1571C16.6192 17.3906 16.5462 17.7773 16.5462 18.3173C16.5462 18.8572 16.6192 19.2512 16.7651 19.4993C16.9183 19.7401 17.1117 19.8605 17.3451 19.8605ZM17.564 23.4831L21.4713 16.0627H22.2374L18.3411 23.4831H17.564ZM22.4782 23.4831C21.9747 23.4831 21.5625 23.2861 21.2414 22.8921C20.9277 22.4908 20.7708 21.929 20.7708 21.2067C20.7708 20.4843 20.9277 19.9298 21.2414 19.5431C21.5625 19.1491 21.9747 18.9521 22.4782 18.9521C22.9816 18.9521 23.3902 19.1491 23.704 19.5431C24.025 19.9298 24.1855 20.4843 24.1855 21.2067C24.1855 21.929 24.025 22.4908 23.704 22.8921C23.3902 23.2861 22.9816 23.4831 22.4782 23.4831ZM22.4782 22.7499C22.7117 22.7499 22.9014 22.6295 23.0473 22.3887C23.2005 22.1406 23.2771 21.7466 23.2771 21.2067C23.2771 20.6667 23.2005 20.28 23.0473 20.0465C22.9014 19.8057 22.7117 19.6854 22.4782 19.6854C22.2447 19.6854 22.0513 19.8057 21.8981 20.0465C21.7522 20.28 21.6792 20.6667 21.6792 21.2067C21.6792 21.7466 21.7522 22.1406 21.8981 22.3887C22.0513 22.6295 22.2447 22.7499 22.4782 22.7499Z" fill="#92201E"/>
</g>
<defs>
<clipPath id="clip0_2662_50935">
<rect width="40" height="40" fill="white"/>
</clipPath>
</defs>
</svg>
