<svg width="32" height="32" viewBox="0 0 32 32" fill="none" xmlns="http://www.w3.org/2000/svg">
<path d="M16.3454 0.00012207H16.2743C7.66263 0.00012207 0.681519 6.98122 0.681519 15.5928V15.664C0.681519 24.2757 7.66263 31.2568 16.2743 31.2568H16.3454C24.957 31.2568 31.9382 24.2757 31.9382 15.664V15.5928C31.9382 6.98122 24.957 0.00012207 16.3454 0.00012207Z" fill="white"/>
<path d="M8.10321 10.5514C7.69146 10.1692 7.48669 9.69615 7.48669 9.13328C7.48669 8.57042 7.69255 8.07654 8.10321 7.69326C8.51495 7.31108 9.04497 7.11945 9.69435 7.11945C10.3437 7.11945 10.8529 7.31108 11.2636 7.69326C11.6753 8.07544 11.8801 8.55618 11.8801 9.13328C11.8801 9.71039 11.6742 10.1692 11.2636 10.5514C10.8518 10.9336 10.3295 11.1252 9.69435 11.1252C9.05921 11.1252 8.51495 10.9336 8.10321 10.5514ZM11.5341 12.7437L11.5341 24.2849H7.83163L7.83163 12.7437H11.5341Z" fill="#0B2B35"/>
<path d="M23.8592 13.9012C24.6662 14.7772 25.0692 15.9796 25.0692 17.5105V24.254H21.553V17.9858C21.553 17.2138 21.3526 16.6137 20.9529 16.1866C20.5532 15.7595 20.0144 15.5449 19.3398 15.5449C18.6653 15.5449 18.1265 15.7584 17.7268 16.1866C17.3271 16.6137 17.1267 17.2138 17.1267 17.9858V24.254H13.5896V12.7108H17.1267V14.2417C17.4847 13.7314 17.9677 13.3285 18.5744 13.0317C19.181 12.7349 19.8633 12.5871 20.6221 12.5871C21.9735 12.5871 23.0532 13.0251 23.8592 13.9001V13.9012Z" fill="#0B2B35"/>
</svg>
