<svg width="205" height="125" viewBox="0 0 205 125" fill="none" xmlns="http://www.w3.org/2000/svg">
<g clip-path="url(#clip0_1960_569)">
<path d="M0.320415 114.741L1.49416 114.319L0 113.684L0.320415 114.741Z" fill="#848A91"/>
<path d="M1.06805 115.799L1.60097 117.385L2.3486 116.646L1.06805 115.799Z" fill="#848A91"/>
<path d="M4.48359 117.491L4.05637 118.338L6.08455 119.395L7.36621 119.289L10.3545 121.404L10.7817 120.241L8.21954 119.077L4.48359 117.491Z" fill="#848A91"/>
<path d="M18.0412 111.781C18.0412 112.098 18.4684 113.05 18.4684 113.05L19.7489 112.203L18.0412 111.78V111.781Z" fill="#848A91"/>
<path d="M16.013 121.404L17.7207 120.241L18.2548 121.192L16.1198 122.144L16.013 121.404Z" fill="#848A91"/>
<path d="M20.2829 120.241C20.6034 120.241 27.8628 119.078 27.8628 119.078L31.5987 117.175L34.1609 114.742H31.7055L30.425 113.262L28.3968 114.32L29.2512 111.147L27.5435 110.83L27.6503 107.235L26.5822 105.86L29.6785 104.802L30.5329 106.388L30.8533 104.167L33.5223 104.273L33.9495 102.158L32.669 102.581L29.7864 101.101V99.1979C29.7864 99.1979 28.5058 97.9293 29.0387 97.8235C29.5728 97.7177 33.4155 97.8235 33.4155 97.8235V99.4095L35.6573 99.7269L35.2301 97.6119L34.2688 97.1887L32.7747 93.3819L34.162 92.9587L35.3358 93.2761L42.2748 90.7379L44.3029 93.0645L49.5342 95.2853L51.0283 94.8621L52.2021 96.3422L50.9215 114.955L54.0178 115.484L55.2983 117.705L57.0061 116.859L59.7819 120.454L61.1692 120.771L63.411 124.789L62.0237 125.001L60.8499 123.098L59.5694 121.935L58.715 120.561L56.9004 118.657L54.979 119.398L52.7372 117.071L47.7196 114.956L45.4778 112.524L43.4496 113.053L44.5177 114.745L39.0728 115.485L40.1409 112.947L42.3827 112.418L41.3146 111.044L38.3252 113.582L36.831 114.428L38.2184 116.226L30.959 119.399L27.8628 120.14L24.5529 120.351L20.7102 121.092L20.2829 120.245V120.241Z" fill="#848A91"/>
<path d="M32.8793 121.404L34.0541 120.558L34.3745 121.615L33.1997 122.144L32.8793 121.404Z" fill="#848A91"/>
<path d="M35.3347 118.971L36.0823 120.241L39.7114 118.549L39.0717 116.856L35.3347 118.971Z" fill="#848A91"/>
<path d="M23.6985 100.677L25.4074 103.004L25.9403 101.734L24.6597 99.8305L23.6985 100.677Z" fill="#848A91"/>
<path d="M19.3217 103.955L20.3898 103.849L20.9238 106.07L20.0693 106.387L19.3217 103.955Z" fill="#848A91"/>
<path d="M57.7526 106.81L58.9274 105.858L59.2479 106.599L58.7138 107.445L57.7526 106.81Z" fill="#848A91"/>
<path d="M60.1012 105.33V107.128L62.5566 107.551L62.7702 105.436L60.1012 105.33Z" fill="#848A91"/>
<path d="M67.7878 109.031L69.6024 107.867L71.0965 110.194L69.7092 111.252L67.7878 109.031Z" fill="#848A91"/>
<path d="M72.5918 110.829H76.3278L76.4346 111.887L73.0179 111.993L72.5918 110.829Z" fill="#848A91"/>
<path d="M74.1928 113.05L75.4733 112.732L76.0074 113.79L75.0472 114.108L74.1928 113.05Z" fill="#848A91"/>
<path d="M76.755 112.838L77.7151 112.098L80.491 113.579L78.6764 114.636L76.755 112.838Z" fill="#848A91"/>
<path d="M80.9182 116.117L80.1705 119.606L81.4522 124.471L87.1095 120.664L82.9464 116.75L80.9182 116.117Z" fill="#848A91"/>
<path d="M93.1841 40.4286L99.707 42.4775L102.123 41.9992L105.427 43.3504L105.296 40.8441L104.071 38.9242L104.649 38.9198C104.659 38.9198 104.858 38.9176 105.21 38.9154L105.132 27.6559C102.722 27.6174 87.2019 27.3308 80.6945 26.275L80.1627 30.4521L79.0535 39.4257L93.1818 40.4308L93.1841 40.4286Z" fill="#848A91"/>
<path d="M45.747 12.7176L43.5308 9.38252L44.8982 5.2484L42.5707 4.65656L38.155 18.3264L40.1965 21.2757L37.7545 22.4847L36.9846 25.3789L36.1869 27.7507L33.7971 36.2273C35.7853 36.6902 45.7804 39.0212 46.3656 39.1667C46.8418 39.2846 51.0684 39.9856 53.486 40.3812L53.5772 39.893L53.6028 39.8974L56.0059 29.7269L55.0769 29.2364L51.7137 28.8485H49.7433L47.2234 21.829L45.9061 22.4384L45.8004 19.9366L47.1377 18.301L45.7482 12.7176H45.747Z" fill="#848A91"/>
<path d="M144.498 64.4541L143.061 63.1877L142.272 64.5654L140.373 64.8509L137.026 65.7282L136.77 67.3318L135.665 68.8847L134.108 68.8031C133.932 68.9729 133.603 69.2792 133.29 69.5151L133.854 70.7021L131.788 71.2135L131.776 71.5772L136.605 71.3832L135.819 70.3726L153.788 69.0324L156.062 66.9791L156.123 66.1889L156.894 65.9982L158.389 64.3703L158.832 63.1822L157.506 61.8255L157.966 60.2571L156 59.2156L153.42 59.6851L148.747 58.335L148.755 58.4045L146.601 60.8655L144.497 64.4552L144.498 64.4541Z" fill="#848A91"/>
<path d="M138.713 60.2098L137.496 62.7822L137.137 65.0404L140.243 64.226L141.867 63.9824L142.893 62.1881L144.337 63.46L146.077 60.493L148.086 58.1951L146.747 45.7365L138.828 46.2655L138.334 46.8783L137.735 46.6381L138.713 60.2098Z" fill="#848A91"/>
<path d="M119.159 34.1497L120.26 34.2489L123.623 37.0252L124.099 39.0741L124.525 40.4242L124.071 41.9231L125.204 43.066C126.982 43.0583 133.722 43.0252 135.532 43.0175L135.503 42.9106L135.343 37.6755L137.798 29.4271L135.77 32.124L134.543 33.5513L135.23 31.0329L134.236 28.8517L130.595 26.5659L127.937 26.351L125.921 24.2746L124.793 24.4983L125.149 23.6166L124.366 22.8054L121.591 23.7852L120.576 24.4366L120.219 27.6207L118.576 28.4858L119.043 30.6449L117.863 31.7636L119.159 34.1486V34.1497Z" fill="#848A91"/>
<path d="M128.722 46.6127L125.391 49.9951V51.7839L123.793 54.2384L123.865 56.6587L125.865 57.8016L127.215 60.083L129.33 60.9559L128.49 63.0356L131.039 65.5606L131.679 67.6227L133.001 68.9321C133.255 68.7282 133.55 68.4592 133.757 68.2542L133.858 68.1539L135.345 68.2311L136.161 67.0871L136.877 62.5948L138.062 60.0907L137.073 46.3713L136.361 46.0848L135.707 43.6556C134.305 43.6623 128.302 43.6909 125.837 43.703L128.725 46.6138L128.722 46.6127Z" fill="#848A91"/>
<path d="M59.7708 47.1836L52.4769 45.7541L53.3669 41.0072C52.0085 40.7846 46.7817 39.926 46.2076 39.7838C46.0307 39.7397 44.9516 39.4863 43.4874 39.1435L38.4431 61.6965L56.9082 64.96L59.7696 47.1825L59.7708 47.1836Z" fill="#848A91"/>
<path d="M56.5955 30.0388L56.5922 30.0377L54.1023 40.5752L53.2256 45.2516L60.1891 46.616L77.4615 48.8721L78.3148 39.645L78.2992 39.6428L79.3962 30.7706L57.183 27.462L56.5955 30.0388Z" fill="#848A91"/>
<path d="M83.3802 68.2367L84.7721 50.0801L77.7096 49.5466L60.406 47.2872L57.5446 65.0581L79.3083 67.8707L83.3802 68.2367Z" fill="#848A91"/>
<path d="M109.184 55.7317L85.0557 54.7916L84.0222 68.2741L111.537 69.0489C111.536 65.5727 111.517 60.5988 111.467 60.1039C111.382 59.9276 110.855 59.1671 110.396 58.5389L110.296 58.4011L110.834 56.9573L109.184 55.7317Z" fill="#848A91"/>
<path d="M105.507 44.0734L102.058 42.6627L99.6702 43.1355L93.0628 41.0601L78.9233 40.0539L78.1012 48.9382L85.4618 49.4926L85.1047 54.1557L108.919 55.0837L108.676 53.5165L107.12 52.1377L107.289 50.2927L105.507 44.0734Z" fill="#848A91"/>
<path d="M105.233 39.5513L105.931 40.6446L106.093 43.7857L107.941 50.2321L107.79 51.8765L108.563 52.562L122.314 52.6414L123.405 53.6553L124.746 51.5965V49.7361L127.82 46.6149L124.935 43.7063C124.844 43.7063 124.788 43.7063 124.774 43.7063V43.5432L123.343 42.1016L123.849 40.4286L123.544 39.4642C121.871 39.4256 110.416 39.5083 105.231 39.5513H105.233Z" fill="#848A91"/>
<path d="M91.039 80.7459L93.3554 80.9685L94.5925 82.2756L96.8955 83.2323L98.1004 82.8058L99.8071 84.6584L103.929 83.952L105.284 84.8998L109.489 84.0346L112.079 85.1081L111.548 69.687L83.9732 68.9111L83.9721 68.9309L79.5709 68.5342L79.4463 70.2722L90.8788 71.144L91.039 80.7459Z" fill="#848A91"/>
<path d="M163.863 52.0738L163.856 52.087L163.926 52.9577L181.808 49.9962L181.711 49.8992L182.553 48.2306L183.511 48.3265L183.582 47.3114L182.332 46.5366L182.039 43.757L182.679 42.3904L180.176 39.7199L164.446 43.0814L164.109 41.3323L162.442 42.9712L162.348 42.9657L163.863 52.0738Z" fill="#848A91"/>
<path d="M184.32 56.6113L186.592 56.2145L186.603 55.7671L185.998 55.4496L186.211 54.9559L185.926 54.4621L183.257 51.6429L183.233 51.4478L183.056 51.267L184.32 56.6113Z" fill="#848A91"/>
<path d="M189.59 25.2533L189.255 23.9186L189.037 22.2885L183.352 23.8899L184.743 30.0046L185.766 30.9656L186.153 33.5843L188.706 33.0531L188.235 29.6376L188.792 25.9939L189.59 25.2533Z" fill="#848A91"/>
<path d="M185.108 45.4037L185.79 43.8629L185.787 43.864L185.664 43.1321L183.248 42.6891L182.698 43.8662L182.939 46.1619L184.251 46.9731L184.107 49.0253L182.93 48.9095L182.492 49.7791L182.58 49.8684L182.72 49.8453L182.771 50.0635L183.517 50.8229L184.646 50.9022L185.037 51.7487L186.781 47.7997L186.567 45.2978L185.108 45.4037Z" fill="#848A91"/>
<path d="M193.092 32.1405L194.654 31.3062L193.95 30.8532L190.404 20.7532L189.521 21.0453H189.52L189.89 23.8172L190.305 25.4616L189.395 26.308L188.885 29.6431L189.336 32.9219L193.092 32.1405Z" fill="#848A91"/>
<path d="M157.781 72.6915L160.857 69.956L161.484 69.0974L137.056 70.9192L137.873 71.9707L131.755 72.2165L131.706 73.7407H131.641L130.894 76.4773L130.875 76.5115L130.061 77.9652L138.191 78.2584L151.082 77.1364L153.64 75.2947L157.781 72.6915Z" fill="#848A91"/>
<path d="M174.386 53.9827L173.273 55.5367L172.332 55.3295L170.445 58.5125L169.527 59.2266L168.196 58.9081L168.104 60.0797L166.353 61.0551L165.522 63.471L165.305 63.482C165.264 63.4842 164.304 63.5338 163.967 63.5349C163.892 63.5713 163.744 63.784 163.663 63.9735L163.52 64.3119L162.404 63.6495L161.179 65.5794L159.33 63.6881L158.949 64.7065L157.24 66.5691L156.731 66.6958L156.685 67.28L154.831 68.9541L162.982 68.3457L184.262 64.9059C184.139 64.1954 184.077 63.8398 184.077 63.8391L183.615 63.7333L182.902 63.8391L181.763 64.2623L178.738 62.9585C178.738 62.9585 178.881 62.5705 178.987 62.6058C179.094 62.6411 182.262 63.6286 182.262 63.6286L182.44 63.3817L181.23 62.2884L181.693 61.9004L179.985 61.2656L180.057 60.8776L181.444 61.054L181.233 60.3133L180.209 59.155L177.984 58.4033L176.881 58.3394L176.531 56.8791L177.093 55.8585L174.388 53.9827H174.386Z" fill="#848A91"/>
<path d="M126.161 88.1743L126.574 85.9259L125.744 84.3631L130.293 76.2359L130.974 73.7407H128.799L128.957 72.0864L112.292 72.6187L112.733 85.3792L114.188 85.9821L114.128 88.2492L126.161 88.1743Z" fill="#848A91"/>
<path d="M170.776 76.2194L167.133 76.8476L164.245 75.416L159.522 76.0298L157.58 77.1397L157.087 78.1162L168.109 88.8863L168.918 88.3738L167.565 87.6695L168.206 87.3168L168.847 87.6342L169.131 87.1052L169.807 87.5637L172.191 85.1666V84.038L172.725 84.2848L173.081 84.4259L173.829 82.9105L173.651 82.2051L175.501 80.0559L170.776 76.2194Z" fill="#848A91"/>
<path d="M147.971 78.0468L150.031 87.5747L151.689 90.1207L150.623 92.8826L151.399 96.8018L151.878 97.3694L162.77 97.052L163.19 97.5722L163.951 95.9973L165.768 96.2342L165.537 95.6005L165.857 94.2261L165.679 93.5208L166.106 93.2739L165.964 92.2864L166.818 91.9348L166.925 90.912L167.387 89.9961L167.351 89.2202L166.071 89.2555L166.106 87.8447L166.676 88.6912L167.066 88.7628L156.302 78.2451L156.79 77.2797L147.971 78.0468Z" fill="#848A91"/>
<path d="M163.058 68.9795H163.045L162.324 69.0346L161.339 70.3847L158.17 73.2018L158.148 73.2161L153.994 75.8282L152.327 77.0284L157.237 76.6008L159.312 75.4149L164.357 74.7591L167.233 76.1831L170.957 75.5416L176.192 79.7915L176.711 79.7727L176.747 79.1026C176.747 79.1026 177.672 79.42 177.815 79.42C177.957 79.42 177.494 78.0809 177.494 78.0809L178.989 79.42L178.668 77.8693L179.451 77.0582L179.523 76.4939L180.199 75.6474L179.345 75.6827L180.341 74.5894L181.338 74.7304L182.299 73.9545L183.403 74.0603L184.151 72.9317L183.759 72.1911L182.407 73.0376L183.262 72.0148L180.7 72.05L182.372 70.852L183.546 71.5574L184.649 70.3946L182.941 70.1477L185.148 69.7951L185.076 68.068L184.471 67.6801L184.222 69.125L183.759 67.7859L181.197 68.7734L182.371 67.1521L183.651 67.4696L184.15 66.7642L183.331 65.9178L183.9 65.6356L185.857 68.5618L186 68.2796C186 68.2796 184.832 66.7366 184.413 65.5265L163.059 68.9784L163.058 68.9795Z" fill="#848A91"/>
<path d="M136.517 93.1758V93.1659L136.752 78.8447L129.711 78.5901L126.476 84.3708L127.247 85.8234L126.755 88.5005L127.16 91.6306L124.592 97.6163L132.162 97.6945L131.898 99.6189L133.861 101.187L134.187 100.994L136.5 100.606L136.868 100.626L136.517 93.1758Z" fill="#848A91"/>
<path d="M140.323 101.059L140.535 96.9936L150.672 96.4359L149.955 92.8253L150.971 90.1945L149.427 87.8227L147.324 78.103L138.208 78.8965H138.188L137.395 78.8678L137.161 93.1659L137.514 100.663L138.386 100.712L138.564 97.257L139.454 100.642L139.098 101.311L140.323 101.059Z" fill="#848A91"/>
<path d="M173.188 115.835C173.188 115.835 172.938 114.741 173.045 114.777C173.152 114.812 173.615 114.882 173.615 114.882L173.651 114.424L172.796 114.248L172.013 111.78L173.152 113.648L173.508 113.366L171.409 109.065L171.231 110.193L170.625 108.783L171.053 108.748L170.447 107.303L170.234 108.361L168.882 105.858L170.056 106.422L170.447 106.281L169.203 104.343L168.633 104.59L167.636 103.778L167.85 103.32L168.633 103.849L167.317 101.734L166.011 96.9087L164.331 96.6894L163.329 98.7636L162.468 97.6979L151.584 98.0153L151.006 97.3275L150.855 97.3573L150.801 97.0851L150.786 97.0685L141.148 97.5987L140.975 100.926L140.984 100.924L142.086 100.324L142.442 99.5483L143.404 99.4425L142.585 101.134L144.827 100.605L144.577 99.7236L146.107 99.2298L146.392 99.7941L145.502 100.182L147.138 100.041L148.135 100.887L148.384 99.5131L149.629 100.993L148.811 100.958L149.736 102.191L149.95 103.038L152.298 102.332L151.907 103.144L152.405 103.108L153.117 101.769L154.362 101.593L154.184 100.817L156.284 100.605L156.604 101.733L158.276 101.98L158.312 102.897L159.415 103.496C159.415 103.496 159.487 104.8 159.593 104.8C159.7 104.8 160.945 104.342 160.945 104.342L162.013 106.739L160.981 110.193L162.226 111.426V109.558L163.506 110.51L162.616 112.449L162.296 113.472L164.039 115.163L164.965 114.07L165.178 116.044L164.005 115.868L165.606 117.383L166.424 116.256C166.424 116.256 166.745 118.371 166.887 118.476C167.03 118.582 168.132 119.464 168.132 119.464L169.733 119.358L169.947 120.591L168.737 120.944L169.343 121.508L169.77 121.72L170.66 121.297L170.838 121.826C170.838 121.826 168.596 122.32 168.881 122.39C169.166 122.461 169.7 123.131 169.7 123.131L170.874 122.461L171.514 122.884L171.55 122.179L173.187 121.367L172.51 120.309L173.329 118.194L173.934 118.053L173.827 115.621L173.187 115.832L173.188 115.835Z" fill="#848A91"/>
<path d="M114.469 104.628L116.005 98.1993L113.377 92.3624L113.534 86.4009L109.425 84.6992L105.143 85.5799L103.777 84.6243L99.5712 85.3451L97.9157 83.5486L96.8788 83.9156L94.2187 82.8102L93.0539 81.5791L90.4071 81.3256L90.2469 71.7348L79.404 70.9082L77.8909 92.1795L64.152 90.5174L64.1987 92.6864L69.2842 97.9789L70.5113 102.844L75.796 106.439L78.8922 102.209L84.9233 104.006L89.8341 112.784L91.2749 113.63L91.1681 115.534L94.6904 120.822C94.6904 120.822 98.9604 121.033 99.0672 121.192C99.174 121.351 99.708 122.144 99.8682 122.144C100.028 122.144 100.669 122.091 100.669 122.091L100.776 120.611L100.99 120.082L100.723 117.756L101.15 114.424L100.616 114.318L100.082 117.174L100.242 119.5L98.9615 116.011L98.4275 115.006L99.3887 114.583L99.5489 115.851L100.564 113.366L99.4433 112.625L100.67 112.466L101.044 112.996L102.112 110.775L103.233 109.981L103.553 110.351L102.059 112.255L106.436 109.241L107.823 108.182L109.958 107.548L111.292 106.807L110.331 106.331L110.064 104.48L111.718 103.74L111.344 105.855L114.47 104.625L114.469 104.628Z" fill="#848A91"/>
<path d="M63.49 89.7966L77.2935 91.4664L78.93 68.4648L57.4489 65.6896L53.7229 91.9006C55.1103 92.1166 56.0982 92.2698 56.0982 92.2698L56.6857 90.3135L63.5234 91.2889L63.4911 89.7977L63.49 89.7966Z" fill="#848A91"/>
<path d="M183.833 57.3442L182.231 50.5738L173.446 52.0286L174.527 53.3049L177.931 55.6646L177.212 56.9706L177.394 57.7311L178.106 57.773L180.577 58.6073L181.107 59.2068L181.62 59.2575L181.264 58.3758C181.264 58.3758 179.734 57.5646 179.841 57.5646C179.948 57.5646 181.014 57.5999 181.014 57.5999L180.124 54.9206L179.733 53.511L181.654 51.5723L181.903 52.1366L180.835 53.7579L181.69 57.4236L182.935 58.3758L183.433 57.9879L183.86 59.0459L183.967 59.9629L185.675 58.9401L186.529 58.7638L186.575 56.8648L183.831 57.3442H183.833Z" fill="#848A91"/>
<path d="M132.195 104.448L132.978 103.708L133.69 103.496L133.441 101.946L132.373 103.144L131.163 103.108L132.479 102.085L129.846 102.615L129.027 101.98L127.711 102.121L127.747 101.38L128.92 101.662C128.92 101.662 128.92 101.027 129.134 101.027C129.348 101.027 131.447 101.133 131.447 101.133L133.119 101.627L133.273 101.536L131.21 99.8878L131.426 98.3228L123.623 98.2423L126.499 91.538L126.147 88.8102L114.111 88.8852L114.023 92.2335L116.68 98.1354L115.198 104.339L115.238 104.324L117.676 103.707L119.206 104.483L122.657 104.906L123.297 105.576L124.152 105.223L122.658 104.447L121.946 103.495L123.085 103.213L124.472 103.46V104.799L125.327 104.975C125.327 104.975 125.718 103.813 125.79 103.953C125.861 104.094 126.11 105.433 126.11 105.433L125.398 105.926L125.754 106.42L127.284 105.785L127.177 106.667L128.92 107.09L129.454 106.526L128.814 105.538L129.952 105.644V106.913L131.375 106.384L130.734 104.974L131.303 104.904L132.3 105.75L132.158 106.209L132.799 106.491L132.549 107.161L134.649 106.984L133.511 106.173L134.827 106.068L132.193 104.446L132.195 104.448Z" fill="#848A91"/>
<path d="M198.132 34.1938L197.919 34.6512L198.914 35.7092L197.741 36.4146L196.993 35.4623L196.352 35.3213L196.744 34.8628L195.534 33.9822L195.107 34.3701L194.68 33.9822L195.463 32.2893L195.025 31.833L193.315 32.7456L186.247 34.2169L186.71 37.3448L192.423 35.9429L194.086 35.4359L194.454 36.3474L195.065 36.4862L196.324 37.6137L196.851 36.4146L197.242 36.5204L197.064 37.5068L197.598 37.401L199.164 36.3793L199.342 36.7662H199.84L199.057 34.8275L198.132 34.1938Z" fill="#848A91"/>
<path d="M191.797 41.49L191.086 42.3717L190.802 42.1248L191.797 40.8915L191.264 40.7504L190.09 41.9485L188.524 42.6186L187.208 43.3239L186.781 43.4286L186.567 43.0771L186.873 42.8798L186.799 42.8864L186.692 41.6266L185.162 31.2765L184.157 30.3341L182.731 24.0652L178.809 25.1695L177.671 25.2401L174.433 30.5976L175.18 31.1266L174.895 31.4793L175.465 32.8536L174.397 33.3121L173.045 34.8981L171.302 35.2508L169.771 34.8628L165.928 35.9914L166.213 37.6127L167.103 37.8595L166.783 38.706L164.659 40.7912L164.955 42.321L180.398 39.0201L183.225 42.0366L186.225 42.5866L186.414 43.7086L186.603 43.8519L186.176 44.6278L186.959 44.9804L190.552 42.8654L190.659 43.1476L189.129 44.0282L189.485 44.2751L191.442 43.1123L193.399 41.1031L193.079 40.6446L191.797 41.49Z" fill="#848A91"/>
<path d="M205 19.423L204.074 18.6482L204.11 17.8017L203.078 16.6742L200.765 16.4979L198.275 10.0813L194.929 9.34173L193.791 10.1871L193.043 9.30646L191.229 14.7345L192.225 17.0611L191.727 17.8017L191.975 18.754L191.371 19.2466L191.549 20.1989L190.989 20.4766L194.485 30.4377L195.188 30.8896L195.641 30.1038L195.784 29.4701L196.352 29.0116L196.423 28.5531L195.784 28.5884L196.779 27.8124L196.282 26.7555L196.922 26.3675L197.598 27.4609L198.025 27.0024L197.491 26.2265L198.168 24.8521L198.558 24.9226L198.701 25.4869L199.164 25.3811L199.128 23.4766L198.986 21.8907L199.52 21.9965L199.733 23.1956L200.16 22.984L200.267 22.0317L201.227 22.8076L201.761 22.5608L201.121 21.9612L201.548 21.7849L202.331 22.5608L202.189 21.8201L202.723 22.0317L203.113 21.7849L202.438 21.2206L203.113 21.3264L203.647 20.8337L203.576 20.4105H204.324L205 19.423Z" fill="#848A91"/>
<path d="M189.272 41.0679L192.941 39.7784L192.265 36.6384L186.803 37.9797L187.333 41.5638L187.415 42.5436L188.951 41.7016L189.272 41.0679Z" fill="#848A91"/>
<path d="M194.758 37.0704L193.981 36.893L193.709 36.2173L192.885 36.4686L193.54 39.5028L194.431 39.0223L194.36 37.5421L194.858 37.401L194.894 38.7765L195.957 38.1439L194.758 37.0704Z" fill="#848A91"/>
<path d="M126.074 23.4061L126.07 23.5086L128.233 25.736L130.806 25.9443L134.745 28.4175L135.522 30.1247C135.934 29.556 138.03 26.6629 138.175 26.5207C138.335 26.362 138.228 28.5299 138.228 28.5299L139.082 26.6265L141.484 25.2522L144.1 26.362C144.1 26.3091 144.794 28.2654 144.794 28.2654L143.567 28.4241L144.155 31.0681L142.714 31.3326V29.4293C142.714 29.4293 140.472 31.8088 140.045 32.232C139.618 32.6552 140.419 33.9767 140.419 33.9767L139.457 35.9859L141.432 39.9514L140.898 43.7052L139.376 45.5899L147.323 45.0587L147.378 45.5701L153.121 45.0443L154.294 42.2306L154.045 41.3136L154.757 41.1725L155.327 39.5513L154.722 38.8459L153.548 34.5101L151.947 34.2985L150.843 34.6159L150.986 35.7787L150.131 36.6604L148.566 35.9197L149.775 34.5101L150.238 34.3338L150.914 32.2893L149.741 29.8569L150.061 29.6453L150.559 29.7864L149.279 27.9535L148.674 27.9888L146.717 27.495L145.613 26.5428L144.794 26.6838L144.83 25.4858L147.178 25.5916L148.033 25.4858L148.781 25.3095L148.14 24.5336L147.606 25.38L145.933 23.9704L145.328 22.9123L143.941 23.7588L142.873 22.8771L143.193 21.8895L142.161 21.7837L139.065 22.8771L138.281 23.6882V24.4289L137.641 24.3936L136.786 23.794L135.789 24.1114L133.868 22.8076L133.013 22.6665L132.586 22.1022L132.088 22.6313L132.622 22.8429L131.767 23.3366L131.874 21.4333L134.223 19.9883L133.511 19.1419L130.236 20.869L130.058 22.1022L126.855 23.2297L126.072 23.4061H126.074Z" fill="#848A91"/>
<path d="M153.617 46.1785L154.648 45.6494L153.945 45.5778L153.948 45.6086L147.443 46.2038L148.675 57.6484L153.455 59.0294L156.107 58.5477L158.165 59.6377L159.013 57.1161L159.969 56.9662L160.071 55.6579L161.169 55.1432L163.189 51.9404L161.691 42.9316L161.089 42.9007L157.851 45.2273L157.175 44.8746L154.185 46.4959L153.617 46.1785Z" fill="#848A91"/>
<path d="M112.181 69.3718L112.271 71.9817L129.668 71.4262L129.507 73.1037H131.083L131.161 70.7131L132.939 70.2734L132.489 69.3267L131.112 67.9622L130.471 65.9001L127.735 63.19L128.498 61.3042L126.77 60.5911L125.397 58.2722L123.233 57.0356L123.152 54.2935L122.06 53.2795L109.279 53.2057L109.595 55.2435L111.603 56.7358L111.019 58.3064C111.375 58.799 112.006 59.6874 112.084 59.9199C112.149 60.1106 112.181 63.2913 112.181 69.3751V69.3718Z" fill="#848A91"/>
<path d="M103.701 14.8359L105.13 17.9814L105.754 27.0255H105.773L105.854 38.9088C107.564 38.8955 110.854 38.8702 114.128 38.8493C120.337 38.8107 122.56 38.8118 123.381 38.8261L123.045 37.3779L120.003 34.8661L118.757 34.7537L117.065 31.6402L118.34 30.4322L117.846 28.1497L119.618 27.2173L119.972 24.0674L120.566 23.686L121.236 22.3844L122.979 21.2558L123.691 19.8815L128.246 17.6607L127.427 16.92L123.371 17.308L121.378 17.1316L119.92 16.4968L119.172 17.0258L118.353 16.391L118.709 15.9325L117.748 14.9803L116.751 15.7562L112.802 14.6981L111.023 13.8517L110.596 13.5695L110.026 13.5343L109.456 13.1816L103.9 12.9898L103.701 14.8337V14.8359Z" fill="#848A91"/>
<path d="M170.702 53.0867L167.872 56.7435L167.222 53.058L163.339 53.7005L163.283 52.9941L161.614 55.6392L160.684 56.0757L160.571 57.5172L159.499 57.6848L158.656 60.191L158.228 61.6481L161.069 64.5544L162.192 62.7833L163.237 63.4038C163.389 63.1635 163.631 62.8979 163.951 62.8979C164.17 62.8979 164.738 62.8714 165.052 62.856L165.821 60.6187L167.487 59.6907L167.609 58.1124L169.373 58.5345L169.949 58.086L172.012 54.6065L172.993 54.8225L173.9 53.5573L173.064 52.572L170.7 53.0867H170.702Z" fill="#848A91"/>
<path d="M170.31 52.5466L167.857 52.9522L168.255 55.2027L170.31 52.5466Z" fill="#848A91"/>
<path d="M44.2384 9.2888L46.3456 12.4585L47.8375 18.4553L46.4524 20.1504L46.5069 21.4553L47.5916 20.9549L50.1961 28.2114L51.7682 28.2136L55.2705 28.617L56.1539 29.0832L56.6868 26.7433L79.5553 30.1489L81.8994 11.7157L67.503 9.58858L45.5312 5.37952L44.2384 9.2888Z" fill="#848A91"/>
<path d="M32.0905 80.6158L30.8589 78.7499L32.3786 76.0056L33.2598 75.7675L34.4825 73.5577L33.4289 70.874L17.9088 48.0102L18.781 45.4169L18.2236 44.7864L21.6836 33.5689L17.4415 32.4017L7.21713 29.0457L7.206 29.135L6.56517 29.6111L6.88559 30.4564L5.92434 34.1585L4.26998 36.8544L4.85741 38.5472L3.30984 43.6226L4.6972 44.3103L6.13795 47.3247L5.49824 48.7519L6.45837 49.281L8.16614 48.3816L10.2477 48.7519L8.21954 49.1751L8.16614 51.7134L7.57982 49.9687L6.51177 50.7611L6.29816 55.4673L10.4613 64.0331L9.5012 67.1003L15.9596 71.1187L17.9343 72.0181L17.3469 73.5511L19.8557 74.0802L19.8023 75.4016L21.4567 77.2521L20.4432 79.0497L21.2976 80.2664L30.8644 80.9839L32.0905 80.6158Z" fill="#848A91"/>
<path d="M7.29612 28.401L17.6373 31.7945L33.1719 36.0686L35.5728 27.5568L36.3705 25.1872L37.2049 22.0439L39.2464 21.0321L37.5954 18.6471L31.3484 16.6357L26.3297 16.7933L23.1789 16.3006L22.2021 15.5754L18.9101 14.6551L18.8299 12.1676L15.1196 10.6268L14.9805 11.6684L15.0161 12.5137L11.6006 18.6835L8.48655 24.5876L6.61858 24.6405L7.52642 26.5439L7.29612 28.401Z" fill="#848A91"/>
<path d="M15.9062 7.96625L14.9805 7.89571L15.1296 9.93907L19.4585 11.7378L19.5375 14.168L22.4914 14.9935L23.4359 15.6955L26.3697 16.154L31.4396 15.9942L37.5909 17.9748L41.9443 4.49672L24.2681 0L24.5885 0.775905L23.9477 1.26966L25.0858 1.30493L24.4806 2.22191L24.0534 3.77262C24.0534 3.77262 24.445 3.73735 24.5518 3.80788C24.6586 3.87842 25.157 5.42913 25.157 5.42913L24.623 5.71128L24.0178 4.86483L23.3413 5.78181L23.4125 6.9093L22.8429 7.72047H22.2733L22.9853 5.4644L23.0565 4.51215L22.2733 5.88652L22.0241 5.07534L23.0209 3.84205L19.8535 2.57349L17.2201 0.458489L16.33 2.115L17.3625 3.41883L16.6505 6.345L15.8316 7.15618L16.0808 7.47359L16.7573 7.12091L17.2557 7.75574L16.2944 7.86155L16.8997 8.56691L16.0096 9.62496L15.9028 7.96845L15.9062 7.96625Z" fill="#848A91"/>
<path d="M80.7769 25.6401C87.1918 26.6871 102.593 26.9759 105.108 27.0167L104.495 18.1401L103.042 14.9406L103.256 12.9699L96.1835 12.7253L82.5403 11.7719L80.7769 25.6401Z" fill="#848A91"/>
<path d="M56.8114 65.6058H56.8058L56.808 65.5904L38.3052 62.3204L37.3751 66.4787L34.9175 64.9368L33.7259 67.992L34.033 70.6492L35.1934 73.6041L33.6948 76.312L32.8136 76.5501L31.611 78.7224L33.1018 80.9807L30.722 81.6937L30.3727 82.2239C30.3727 82.2239 44.5711 90.4723 44.8915 90.5252C45.1006 90.5593 49.8412 91.2967 53.0899 91.8025L56.8136 65.6081L56.8114 65.6058Z" fill="#848A91"/>
<path opacity="0.7" d="M36.9434 65.4537L42.8611 38.998C39.5568 38.2254 34.8474 37.1266 33.6224 36.8412L33.6191 36.8533L22.3044 33.7397L18.9445 44.6333L19.5086 45.2714L18.6197 47.9132L33.2475 69.4611L33.0684 67.906L34.5993 63.9813L36.9445 65.4526L36.9434 65.4537Z" fill="white"/>
</g>
<defs>
<clipPath id="clip0_1960_569">
<rect width="205" height="125" fill="white"/>
</clipPath>
</defs>
</svg>
