<svg width="321" height="94" viewBox="0 0 321 94" fill="none" xmlns="http://www.w3.org/2000/svg">
<path d="M118.269 34.44C116.476 33.6246 114.374 33.2169 111.95 33.2169H100.081V60.7408H106.429V53.15H111.95C114.374 53.15 116.49 52.7564 118.269 51.9551C120.063 51.1539 121.436 50.0012 122.403 48.4971C123.37 46.993 123.846 45.2218 123.846 43.2116C123.846 41.2014 123.356 39.4021 122.403 37.898C121.436 36.4079 120.063 35.2553 118.269 34.44ZM115.943 46.7259C114.948 47.5552 113.505 47.9629 111.599 47.9629H106.429V38.404H111.599C113.505 38.404 114.962 38.8117 115.943 39.6411C116.938 40.4704 117.428 41.6512 117.428 43.1975C117.428 44.7438 116.938 45.8824 115.943 46.7118V46.7259Z" fill="white"/>
<path d="M145.748 50.3667C146.575 49.1156 146.995 47.6255 146.995 45.8824C146.995 44.1393 146.589 42.6493 145.762 41.3841C144.949 40.119 143.772 39.135 142.259 38.4603C140.746 37.7715 138.952 37.4341 136.892 37.4341H126.831V60.7549H132.212V54.2605H137.158L141.642 60.7549H147.416L142.203 53.2624C143.73 52.6017 144.907 51.6318 145.734 50.3807L145.748 50.3667ZM140.283 48.8907C139.442 49.6076 138.209 49.959 136.598 49.959H132.212V41.834H136.598C138.209 41.834 139.442 42.1854 140.283 42.8883C141.124 43.5911 141.544 44.5892 141.544 45.8965C141.544 47.2038 141.124 48.1878 140.283 48.8907Z" fill="white"/>
<path d="M159.354 37.42L148.999 60.7408H154.506L156.566 55.7365H167.356L169.415 60.7408H175.063L164.665 37.42H159.354ZM158.289 51.6459L161.975 42.7196L165.66 51.6459H158.289Z" fill="white"/>
<path d="M183.554 37.42H178.173V60.7408H183.554V37.42Z" fill="white"/>
<path d="M207.67 50.3667C208.497 49.1156 208.917 47.6255 208.917 45.8824C208.917 44.1393 208.511 42.6493 207.684 41.3841C206.871 40.119 205.694 39.135 204.181 38.4603C202.668 37.7715 200.874 37.4341 198.814 37.4341H188.753V60.7549H194.134V54.2605H199.08L203.564 60.7549H209.338L204.125 53.2624C205.652 52.6017 206.829 51.6318 207.656 50.3807L207.67 50.3667ZM202.205 48.8907C201.364 49.6076 200.131 49.959 198.52 49.959H194.134V41.834H198.52C200.131 41.834 201.364 42.1854 202.205 42.8883C203.046 43.5911 203.466 44.5892 203.466 45.8965C203.466 47.2038 203.046 48.1878 202.205 48.8907Z" fill="white"/>
<path d="M218.824 37.42H213.443V60.7408H218.824V37.42Z" fill="white"/>
<path d="M237.937 41.7496L242.239 37.42H224.247V60.7408H242.239L237.923 56.4112H229.586V51.0133H237.559V46.8102H229.586V41.7496H237.937Z" fill="white"/>
<path d="M316.198 56.4112H307.847V51.0133H315.848V46.8102H307.847V41.7496H316.156L320.458 37.42H302.508V60.7408H320.5L316.198 56.4112Z" fill="white"/>
<path d="M245.854 60.7408H252.202V50.7181H261.395V45.6013H252.202V38.3338H261.521L266.579 33.2169H245.854V60.7408Z" fill="white"/>
<path d="M272.633 37.42H267.252V60.7408H272.633V37.42Z" fill="white"/>
<path d="M297.015 50.3667C297.841 49.1156 298.262 47.6255 298.262 45.8824C298.262 44.1393 297.856 42.6493 297.029 41.3841C296.216 40.119 295.039 39.135 293.526 38.4603C292.012 37.7715 290.219 37.4341 288.159 37.4341H278.098V60.7549H283.478V54.2605H288.425L292.909 60.7549H298.682L293.469 53.2624C294.997 52.6017 296.174 51.6318 297.001 50.3807L297.015 50.3667ZM291.55 48.8907C290.709 49.6076 289.476 49.959 287.864 49.959H283.478V41.834H287.864C289.476 41.834 290.709 42.1854 291.55 42.8883C292.391 43.5911 292.811 44.5892 292.811 45.8965C292.811 47.2038 292.391 48.1878 291.55 48.8907Z" fill="white"/>
<path d="M80.5331 21.3809L78.8096 26.1603L50.0837 40.3721L46.7486 49.6919L84.4006 31.0944L92.8643 7.45026L41.7461 32.6547L25.5334 77.6094L29.9755 85.6922L47.1971 37.8839L80.5331 21.3809Z" fill="white"/>
<path d="M19.5781 51.3507C19.8443 50.9149 21.1616 48.8907 21.3437 48.4268C21.0635 49.1015 21.3858 48.9329 20.9514 50.6478C21.2176 49.6217 21.8482 49.4108 22.4928 48.5393C23.3616 46.7118 22.3526 47.5974 23.6418 46.0089C23.7679 46.3885 23.0673 48.1597 22.8431 48.8907C23.7539 48.2019 24.3985 46.1074 24.4966 45.8965C24.5246 45.8684 24.6227 46.1495 24.6367 46.1214C24.5526 46.3745 24.4826 46.4588 24.3845 46.7118C24.4405 46.8383 24.0622 48.23 24.1462 48.3565C24.3705 48.469 25.0711 47.485 25.015 47.8786C24.959 49.4249 23.3335 50.5072 23.6278 51.6037C23.7259 51.9973 25.3093 48.6095 25.3233 49.1718C25.3513 49.9871 26.5284 45.9106 25.6176 50.8165C25.5475 51.1679 26.6265 48.9047 26.7666 48.7079C28.2239 46.6978 27.7895 47.7942 27.7895 47.7942C27.9157 48.5533 29.429 45.3764 29.4851 45.4326C29.7513 45.6997 29.1628 47.246 30.2558 45.77L48.4862 14.0009L53.5448 22.9272L59.8085 19.8768L48.4162 0L23.2074 43.7458C23.2074 43.7458 21.4699 47.3022 20.7972 48.0332L18.2049 52.6298C18.4992 52.4893 19.2838 51.6177 19.5361 51.3647L19.5781 51.3507Z" fill="white"/>
<path d="M49.1308 77.4547H92.9624L77.3383 50.2964L73.1065 52.3487L72.1816 55.132L81.0937 70.6089H56.1792C57.0059 70.9463 57.1461 70.9744 57.4403 70.9744C59.5142 70.9182 59.318 71.2696 59.276 71.2977C59.1358 71.3961 60.7613 71.7897 60.7613 71.8038C60.8314 71.9725 61.8963 71.7194 62.681 71.874C62.7371 72.0287 61.7001 71.9725 61.532 72.0428C61.4619 72.0709 60.9575 72.3942 61.0415 72.4082C62.4148 72.6894 63.5358 72.5207 63.9422 72.7596C62.8071 72.9846 57.9448 72.4926 57.4824 72.844C57.3983 73.1814 59.29 72.8721 60.1588 73.4063C58.6454 73.5469 58.4772 73.5187 57.8467 73.7718C57.3702 73.9686 56.2772 73.5468 56.4034 74.0248C55.9269 73.9545 53.0543 74.4465 52.8722 74.573C52.704 74.6855 56.8518 74.4887 58.8696 74.6433C58.6314 74.9666 55.8289 74.6855 55.4786 74.8964C54.9601 75.2197 53.7409 76.049 52.9002 76.3723C52.7741 76.4145 57.9447 76.6113 57.5384 76.6535C50.7843 77.1455 50.476 76.8784 49.0887 77.511L49.1308 77.4547Z" fill="white"/>
<path d="M19.1437 65.1266L27.6354 60.9236L30.9564 51.5615L14.1972 59.8411L9.15267 68.5847L3.12724 71.621C0.0164324 73.2657 -0.417969 77.5531 2.28647 79.8023L6.93869 83.6539V80.8987C6.93869 79.1416 8.35397 77.3563 10.0915 77.3282H21.722L24.2163 70.4543H16.0469L19.1297 65.1126L19.1437 65.1266Z" fill="white"/>
<path d="M68.5664 54.6681L48.7945 64.4238L50.5601 59.546L74.9562 47.485L78.3472 38.0526L44.9831 54.5979L30.8723 94L39.8685 89.5579L45.4455 73.7578L65.2174 64.0161L68.5664 54.6681Z" fill="white"/>
<path d="M88.1561 80.0553H88.8427V81.953H89.3612V80.0553H90.0618V79.6195H88.1561V80.0553Z" fill="white"/>
<path d="M91.5892 81.2221H91.5752L91.0427 79.6195H90.314V81.953H90.8045V80.3224L91.379 81.953H91.7714L92.3319 80.3083H92.3459V81.953H92.8223V79.6195H92.1076L91.5892 81.2221Z" fill="white"/>
</svg>
