<svg width="78" height="77" viewBox="0 0 78 77" fill="none" xmlns="http://www.w3.org/2000/svg">
<path d="M48.6 6.40002H19.8C18.1026 6.40002 16.4747 7.07431 15.2745 8.27454C14.0743 9.47477 13.4 11.1026 13.4 12.8V64C13.4 65.6974 14.0743 67.3253 15.2745 68.5255C16.4747 69.7257 18.1026 70.4 19.8 70.4H58.2C59.8974 70.4 61.5252 69.7257 62.7255 68.5255C63.9257 67.3253 64.6 65.6974 64.6 64V22.4L48.6 6.40002Z" stroke="white" stroke-width="4.8" stroke-linecap="round" stroke-linejoin="round"/>
<path d="M45.4 6.40002V19.2C45.4 20.8974 46.0743 22.5253 47.2745 23.7255C48.4747 24.9257 50.1026 25.6 51.8 25.6H64.6" stroke="white" stroke-width="4.8" stroke-linecap="round" stroke-linejoin="round"/>
<path d="M29.4 48L35.8 54.4L48.6 41.6" stroke="white" stroke-width="4.8" stroke-linecap="round" stroke-linejoin="round"/>
</svg>
