<svg width="28" height="29" viewBox="0 0 28 29" fill="none" xmlns="http://www.w3.org/2000/svg">
<g id="search">
<mask id="mask0_1782_15232" style="mask-type:alpha" maskUnits="userSpaceOnUse" x="0" y="0" width="28" height="29">
<rect id="Bounding box" y="0.5" width="28" height="28" fill="#D9D9D9"/>
</mask>
<g mask="url(#mask0_1782_15232)">
<path id="search_2" d="M22.8667 25L15.5167 17.65C14.9333 18.1167 14.2625 18.4861 13.5042 18.7583C12.7458 19.0306 11.9389 19.1667 11.0833 19.1667C8.96389 19.1667 7.17014 18.4326 5.70208 16.9646C4.23403 15.4965 3.5 13.7028 3.5 11.5833C3.5 9.46389 4.23403 7.67014 5.70208 6.20208C7.17014 4.73403 8.96389 4 11.0833 4C13.2028 4 14.9965 4.73403 16.4646 6.20208C17.9326 7.67014 18.6667 9.46389 18.6667 11.5833C18.6667 12.4389 18.5306 13.2458 18.2583 14.0042C17.9861 14.7625 17.6167 15.4333 17.15 16.0167L24.5 23.3667L22.8667 25ZM11.0833 16.8333C12.5417 16.8333 13.7812 16.3229 14.8021 15.3021C15.8229 14.2812 16.3333 13.0417 16.3333 11.5833C16.3333 10.125 15.8229 8.88542 14.8021 7.86458C13.7812 6.84375 12.5417 6.33333 11.0833 6.33333C9.625 6.33333 8.38542 6.84375 7.36458 7.86458C6.34375 8.88542 5.83333 10.125 5.83333 11.5833C5.83333 13.0417 6.34375 14.2812 7.36458 15.3021C8.38542 16.3229 9.625 16.8333 11.0833 16.8333Z" fill="white"/>
</g>
</g>
</svg>
