<svg width="40" height="40" viewBox="0 0 40 40" fill="none" xmlns="http://www.w3.org/2000/svg">
<mask id="mask0_2662_50946" style="mask-type:alpha" maskUnits="userSpaceOnUse" x="0" y="0" width="40" height="40">
<rect width="40" height="40" fill="#D9D9D9"/>
</mask>
<g mask="url(#mask0_2662_50946)">
<path d="M18.345 35C18.0422 35 17.7376 34.94 17.4313 34.82C17.1249 34.7 16.849 34.52 16.6038 34.28L5.74458 23.4146C5.47986 23.1704 5.28958 22.8953 5.17375 22.5892C5.05792 22.2833 5 21.9733 5 21.6592C5 21.345 5.05611 21.0329 5.16833 20.7229C5.28056 20.4129 5.47264 20.1353 5.74458 19.89L19.905 5.72667C20.1303 5.50444 20.3965 5.32778 20.7038 5.19667C21.011 5.06555 21.3283 5 21.6558 5H32.5567C33.2422 5 33.8249 5.24444 34.3046 5.73333C34.7846 6.22222 35.0246 6.80042 35.0246 7.46792V18.3621C35.0246 18.6949 34.9592 19.0119 34.8283 19.3133C34.6972 19.615 34.5144 19.8713 34.28 20.0821L20.0779 34.28C19.8357 34.5178 19.5621 34.6972 19.2571 34.8183C18.9518 34.9394 18.6478 35 18.345 35ZM17.5833 33.3033C17.7969 33.5028 18.0481 33.6025 18.3367 33.6025C18.625 33.6025 18.876 33.5028 19.0896 33.3033L33.3258 19.0621C33.4183 18.9693 33.4896 18.8553 33.5396 18.72C33.5893 18.5847 33.6142 18.4529 33.6142 18.3246V7.46792C33.6142 7.16875 33.5128 6.92305 33.31 6.73083C33.1069 6.53861 32.8558 6.4425 32.5567 6.4425H21.2213L6.72417 20.9104C6.51056 21.124 6.40375 21.375 6.40375 21.6633C6.40375 21.9519 6.51056 22.2031 6.72417 22.4167L17.5833 33.3033ZM29.2767 12.2929C29.7172 12.2929 30.0949 12.1368 30.4096 11.8246C30.724 11.5126 30.8813 11.1444 30.8813 10.72C30.8813 10.2794 30.7235 9.90542 30.4079 9.59792C30.0924 9.29042 29.7197 9.13667 29.29 9.13667C28.8531 9.13667 28.4831 9.28917 28.18 9.59417C27.8769 9.89917 27.7254 10.2701 27.7254 10.7071C27.7254 11.1437 27.8761 11.5172 28.1775 11.8275C28.4786 12.1378 28.845 12.2929 29.2767 12.2929Z" fill="#92201E"/>
</g>
</svg>
