<svg width="14" height="12" viewBox="0 0 14 12" fill="none" xmlns="http://www.w3.org/2000/svg">
<path d="M14 1.35001C13.4852 1.57814 12.9321 1.73228 12.3507 1.80196C12.9506 1.44298 13.3994 0.877996 13.6134 0.212422C13.0498 0.547217 12.4329 0.782876 11.7896 0.909154C11.357 0.447255 10.784 0.1411 10.1595 0.0382231C9.53511 -0.0646541 8.89419 0.0415017 8.33627 0.340209C7.77835 0.638917 7.33466 1.11346 7.07408 1.69017C6.81351 2.26689 6.75062 2.91349 6.89518 3.52961C5.75309 3.47226 4.63581 3.17541 3.61587 2.65833C2.59593 2.14124 1.69611 1.41546 0.974808 0.52811C0.728178 0.953548 0.586365 1.44681 0.586365 1.97213C0.58609 2.44505 0.702548 2.91071 0.925407 3.32782C1.14827 3.74493 1.47064 4.10058 1.86391 4.36322C1.40782 4.34871 0.961782 4.22547 0.562935 4.00376V4.04075C0.562889 4.70403 0.792322 5.34689 1.2123 5.86027C1.63229 6.37364 2.21695 6.7259 2.86708 6.85727C2.44398 6.97178 2.00038 6.98865 1.56981 6.9066C1.75324 7.47731 2.11054 7.97638 2.5917 8.33393C3.07286 8.69148 3.65378 8.88962 4.25315 8.90061C3.23569 9.69933 1.97914 10.1326 0.685634 10.1307C0.456502 10.1307 0.227564 10.1174 0 10.0906C1.31299 10.9348 2.8414 11.3828 4.40236 11.3811C9.68643 11.3811 12.5751 7.00464 12.5751 3.20899C12.5751 3.08567 12.572 2.96112 12.5665 2.83781C13.1283 2.43147 13.6134 1.92829 13.9988 1.35186L14 1.35001V1.35001Z" fill="#1D2849"/>
</svg>
