<svg width="28" height="22" viewBox="0 0 28 22" fill="none" xmlns="http://www.w3.org/2000/svg">
<g id="Group 4">
<g id="Subtract">
<path fill-rule="evenodd" clip-rule="evenodd" d="M12.2502 10.688C10.8303 10.688 9.64469 10.2139 8.69341 9.26586C7.74214 8.31778 7.2665 7.1306 7.2665 5.7043C7.2665 4.2844 7.74214 3.09881 8.69341 2.14753C9.64469 1.19626 10.8303 0.720622 12.2502 0.720622C13.6701 0.720622 14.8557 1.19626 15.8069 2.14753C16.7582 3.09881 17.2339 4.2844 17.2339 5.7043C17.2339 7.1306 16.7582 8.31778 15.8069 9.26586C14.8557 10.2139 13.6701 10.688 12.2502 10.688ZM12.2502 8.83436C13.1346 8.83436 13.8774 8.53538 14.4785 7.93742C15.0797 7.33946 15.3802 6.59509 15.3802 5.7043C15.3802 4.8199 15.0797 4.07713 14.4785 3.47597C13.8774 2.87482 13.1346 2.57424 12.2502 2.57424C11.3658 2.57424 10.623 2.87482 10.0219 3.47597C9.4207 4.07713 9.12012 4.8199 9.12012 5.7043C9.12012 6.59509 9.4207 7.33946 10.0219 7.93742C10.623 8.53538 11.3658 8.83436 12.2502 8.83436Z" fill="white"/>
<path d="M0.223057 21.1945L0 18.2345C0 17.4693 0.19264 16.7912 0.577919 16.2001C0.962953 15.6091 1.51419 15.1449 2.23165 14.8075C3.71326 14.1235 5.14939 13.6017 6.54004 13.2419C7.79409 12.9176 10.0654 12.7957 10.8545 12.7638L13.3076 14.5153H11.0824L12.1008 14.5339L11.0269 14.5135C9.47868 14.5135 8.09554 14.7172 6.803 15.0395C5.5107 15.3621 4.25553 15.8364 3.03749 16.4624C2.61311 16.6787 2.30971 16.9395 2.12727 17.2446C1.94484 17.5497 1.85362 17.8797 1.85362 18.2345V19.3409H15.0384L14.4362 21.1945H0.223057Z" fill="white"/>
</g>
<path id="Star 1" d="M20.7547 7.49805L22.4652 12.7616L27.9996 12.7618L23.5223 16.0151L25.2323 21.2787L20.7547 18.0258L16.2771 21.2787L17.9871 16.0151L13.5098 12.7618L19.0443 12.7616L20.7547 7.49805Z" fill="white"/>
</g>
</svg>
