<svg xmlns="http://www.w3.org/2000/svg" width="28" height="22" viewBox="0 0 28 22" fill="none">
    <path fill-rule="evenodd" clip-rule="evenodd" d="M12.2502 10.6882C10.8303 10.6882 9.64469 10.2142 8.69341 9.2661C7.74214 8.31803 7.2665 7.13084 7.2665 5.70454C7.2665 4.28464 7.74214 3.09905 8.69341 2.14778C9.64469 1.1965 10.8303 0.720867 12.2502 0.720867C13.6701 0.720867 14.8557 1.1965 15.8069 2.14778C16.7582 3.09905 17.2339 4.28464 17.2339 5.70454C17.2339 7.13084 16.7582 8.31803 15.8069 9.2661C14.8557 10.2142 13.6701 10.6882 12.2502 10.6882ZM12.2502 8.8346C13.1346 8.8346 13.8774 8.53562 14.4785 7.93766C15.0797 7.33971 15.3802 6.59533 15.3802 5.70454C15.3802 4.82015 15.0797 4.07737 14.4785 3.47622C13.8774 2.87506 13.1346 2.57449 12.2502 2.57449C11.3658 2.57449 10.623 2.87506 10.0219 3.47622C9.4207 4.07737 9.12012 4.82015 9.12012 5.70454C9.12012 6.59533 9.4207 7.33971 10.0219 7.93766C10.623 8.53562 11.3658 8.8346 12.2502 8.8346Z" fill="#0B2B35"/>
    <path d="M0.223057 21.1948L0 18.2347C0 17.4696 0.19264 16.7915 0.577919 16.2004C0.962953 15.6093 1.51419 15.1451 2.23165 14.8078C3.71326 14.1238 5.14939 13.6019 6.54004 13.2422C7.79409 12.9179 10.0654 12.7959 10.8545 12.764L13.3076 14.5156H11.0824L12.1008 14.5342L11.0269 14.5137C9.47868 14.5137 8.09554 14.7174 6.803 15.0397C5.5107 15.3623 4.25553 15.8366 3.03749 16.4626C2.61311 16.679 2.30971 16.9397 2.12727 17.2448C1.94484 17.55 1.85362 17.8799 1.85362 18.2347V19.3411H15.0384L14.4362 21.1948H0.223057Z" fill="#0B2B35"/>
    <path d="M20.7549 7.49829L22.4654 12.7618L27.9999 12.762L23.5225 16.0153L25.2326 21.279L20.7549 18.0261L16.2773 21.279L17.9874 16.0153L13.51 12.762L19.0445 12.7618L20.7549 7.49829Z" fill="#0B2B35"/>
  </svg>