<svg width="78" height="77" viewBox="0 0 78 77" fill="none" xmlns="http://www.w3.org/2000/svg">
<path d="M37.4 48H23C19.6052 48 16.3495 49.3486 13.949 51.749C11.5486 54.1495 10.2 57.4052 10.2 60.8V67.2" stroke="white" stroke-width="4.8" stroke-linecap="round" stroke-linejoin="round"/>
<path d="M69.0096 53.2032C70.2843 51.9285 71.0005 50.1996 71.0005 48.3968C71.0005 46.5941 70.2843 44.8652 69.0096 43.5904C67.7349 42.3157 66.006 41.5995 64.2032 41.5995C62.4005 41.5995 60.6715 42.3157 59.3968 43.5904L46.5648 56.4288C45.804 57.1892 45.2471 58.1291 44.9456 59.1616L42.2672 68.3456C42.1869 68.621 42.1821 68.9129 42.2533 69.1907C42.3245 69.4686 42.469 69.7222 42.6718 69.925C42.8747 70.1278 43.1283 70.2724 43.4061 70.3436C43.684 70.4148 43.9759 70.4099 44.2512 70.3296L53.4352 67.6512C54.4677 67.3497 55.4076 66.7928 56.168 66.032L69.0096 53.2032Z" stroke="white" stroke-width="4.8" stroke-linecap="round" stroke-linejoin="round"/>
<path d="M32.6 35.2C39.6693 35.2 45.4 29.4692 45.4 22.4C45.4 15.3307 39.6693 9.59998 32.6 9.59998C25.5308 9.59998 19.8 15.3307 19.8 22.4C19.8 29.4692 25.5308 35.2 32.6 35.2Z" stroke="white" stroke-width="4.8" stroke-linecap="round" stroke-linejoin="round"/>
</svg>
