<svg width="33" height="32" viewBox="0 0 33 32" fill="none" xmlns="http://www.w3.org/2000/svg">
<path d="M32.0265 15.6283C32.0265 6.99704 25.0295 0 16.3982 0C7.76694 0 0.769897 6.99704 0.769897 15.6283C0.769897 24.2596 7.76694 31.2566 16.3982 31.2566C25.0295 31.2566 32.0265 24.2596 32.0265 15.6283Z" fill="white"/>
<path d="M26.2391 12.3899C26.1161 11.2027 25.8515 9.89041 24.8774 9.20075C24.1229 8.66593 23.1312 8.64616 22.2055 8.64725C20.2485 8.64725 18.2904 8.65055 16.3335 8.65165C14.4512 8.65385 12.5689 8.65494 10.6866 8.65714C9.90026 8.65714 9.13592 8.59674 8.40562 8.93718C7.77856 9.2293 7.28767 9.78498 6.99226 10.4033C6.58263 11.2631 6.49698 12.2372 6.44756 13.1883C6.35641 14.9201 6.36629 16.6563 6.47501 18.3871C6.55518 19.65 6.75834 21.0458 7.73463 21.8508C8.60001 22.5635 9.82119 22.5986 10.9435 22.5997C14.5061 22.603 18.0697 22.6063 21.6333 22.6085C22.0902 22.6096 22.5668 22.6008 23.0324 22.5503C23.9483 22.4515 24.8213 22.189 25.41 21.5103C26.0041 20.8262 26.1568 19.874 26.2468 18.9724C26.4664 16.7848 26.4642 14.5764 26.2391 12.3899ZM14.2733 18.6946V12.5612L19.5841 15.6273L14.2733 18.6946Z" fill="#0B2B35"/>
</svg>
