<svg width="32" height="32" viewBox="0 0 32 32" fill="none" xmlns="http://www.w3.org/2000/svg">
<mask id="mask0_2798_76351" style="mask-type:alpha" maskUnits="userSpaceOnUse" x="1" y="1" width="30" height="30">
<rect x="1" y="1" width="30" height="30" fill="#D9D9D9"/>
</mask>
<g mask="url(#mask0_2798_76351)">
<path d="M14.6562 21.4375L21.625 14.4688L20.2812 13.125L14.6562 18.75L11.7188 15.8125L10.375 17.1562L14.6562 21.4375ZM15.9688 28.4375C14.4271 28.4375 12.974 28.1458 11.6094 27.5625C10.2448 26.9792 9.05729 26.1823 8.04688 25.1719C7.03646 24.1615 6.23438 22.974 5.64062 21.6094C5.04688 20.2448 4.75 18.7841 4.75 17.2272C4.75 15.6701 5.04688 14.2118 5.64062 12.8522C6.23438 11.4924 7.03646 10.3021 8.04688 9.28125C9.05729 8.26042 10.2448 7.45833 11.6094 6.875C12.974 6.29167 14.4271 6 15.9688 6C17.5104 6 18.9635 6.29167 20.3281 6.875C21.6927 7.45833 22.8854 8.26042 23.9062 9.28125C24.9271 10.3021 25.7292 11.4924 26.3125 12.8522C26.8958 14.2118 27.1875 15.6701 27.1875 17.2272C27.1875 18.7841 26.8958 20.2448 26.3125 21.6094C25.7292 22.974 24.9271 24.1615 23.9062 25.1719C22.8854 26.1823 21.6927 26.9792 20.3281 27.5625C18.9635 28.1458 17.5104 28.4375 15.9688 28.4375ZM7.6875 3.90625L9 5.21875L3.875 10.1562L2.5625 8.84375L7.6875 3.90625ZM24.25 3.90625L29.375 8.84375L28.0625 10.1562L22.9375 5.21875L24.25 3.90625ZM15.97 26.5625C18.5733 26.5625 20.7812 25.6558 22.5938 23.8425C24.4062 22.029 25.3125 19.8206 25.3125 17.2175C25.3125 14.6142 24.4058 12.4062 22.5925 10.5938C20.779 8.78125 18.5706 7.875 15.9675 7.875C13.3642 7.875 11.1562 8.78167 9.34375 10.595C7.53125 12.4085 6.625 14.6169 6.625 17.22C6.625 19.8233 7.53167 22.0312 9.345 23.8438C11.1585 25.6562 13.3669 26.5625 15.97 26.5625Z" fill="#0B2B35"/>
</g>
</svg>
