<svg width="32" height="32" viewBox="0 0 32 32" fill="none" xmlns="http://www.w3.org/2000/svg">
<mask id="mask0_2798_76366" style="mask-type:alpha" maskUnits="userSpaceOnUse" x="1" y="1" width="30" height="30">
<rect x="1" y="1" width="30" height="30" fill="#D9D9D9"/>
</mask>
<g mask="url(#mask0_2798_76366)">
<rect x="5" y="5" width="22" height="22" rx="11" stroke="#0B2B35" stroke-width="2"/>
<path d="M15.3118 22.04V20.64C14.9011 20.5933 14.4671 20.4813 14.0098 20.304C13.5618 20.1173 13.1744 19.8747 12.8478 19.576L13.7438 18.19C14.0984 18.4607 14.4344 18.666 14.7518 18.806C15.0784 18.9367 15.4098 19.002 15.7458 19.002C16.1378 19.002 16.4224 18.9227 16.5998 18.764C16.7864 18.6053 16.8798 18.3627 16.8798 18.036C16.8798 17.7933 16.7864 17.588 16.5998 17.42C16.4224 17.252 16.1938 17.0933 15.9138 16.944C15.6431 16.7853 15.3491 16.6313 15.0318 16.482C14.7144 16.3233 14.4158 16.1367 14.1358 15.922C13.8651 15.7073 13.6364 15.4553 13.4498 15.166C13.2724 14.8767 13.1838 14.522 13.1838 14.102C13.1838 13.4113 13.3704 12.842 13.7438 12.394C14.1264 11.9367 14.6491 11.6427 15.3118 11.512V10.07H16.6698V11.484C17.1178 11.5493 17.5098 11.6847 17.8458 11.89C18.1818 12.0953 18.4851 12.3427 18.7558 12.632L17.7198 13.808C17.4678 13.5747 17.2251 13.402 16.9918 13.29C16.7584 13.1687 16.4924 13.108 16.1938 13.108C15.8578 13.108 15.6011 13.178 15.4238 13.318C15.2464 13.458 15.1578 13.6867 15.1578 14.004C15.1578 14.228 15.2464 14.4193 15.4238 14.578C15.6104 14.7273 15.8391 14.872 16.1098 15.012C16.3898 15.152 16.6884 15.2967 17.0058 15.446C17.3231 15.5953 17.6171 15.7773 17.8878 15.992C18.1678 16.2067 18.3964 16.468 18.5738 16.776C18.7604 17.0747 18.8538 17.448 18.8538 17.896C18.8538 18.568 18.6718 19.1467 18.3078 19.632C17.9438 20.108 17.3978 20.4253 16.6698 20.584V22.04H15.3118Z" fill="#0B2B35"/>
</g>
</svg>
