<svg width="19" height="20" viewBox="0 0 19 20" fill="none" xmlns="http://www.w3.org/2000/svg">
<path d="M2.92676 20C2.37676 20 1.90592 19.8042 1.51426 19.4125C1.12259 19.0208 0.926758 18.55 0.926758 18V4C0.926758 3.45 1.12259 2.97917 1.51426 2.5875C1.90592 2.19583 2.37676 2 2.92676 2H3.92676V0H5.92676V2H13.9268V0H15.9268V2H16.9268C17.4768 2 17.9476 2.19583 18.3393 2.5875C18.7309 2.97917 18.9268 3.45 18.9268 4V18C18.9268 18.55 18.7309 19.0208 18.3393 19.4125C17.9476 19.8042 17.4768 20 16.9268 20H2.92676ZM2.92676 18H16.9268V8H2.92676V18ZM2.92676 6H16.9268V4H2.92676V6ZM9.92676 12C9.64342 12 9.40592 11.9042 9.21426 11.7125C9.02259 11.5208 8.92676 11.2833 8.92676 11C8.92676 10.7167 9.02259 10.4792 9.21426 10.2875C9.40592 10.0958 9.64342 10 9.92676 10C10.2101 10 10.4476 10.0958 10.6393 10.2875C10.8309 10.4792 10.9268 10.7167 10.9268 11C10.9268 11.2833 10.8309 11.5208 10.6393 11.7125C10.4476 11.9042 10.2101 12 9.92676 12ZM5.92676 12C5.64342 12 5.40592 11.9042 5.21426 11.7125C5.02259 11.5208 4.92676 11.2833 4.92676 11C4.92676 10.7167 5.02259 10.4792 5.21426 10.2875C5.40592 10.0958 5.64342 10 5.92676 10C6.21009 10 6.44759 10.0958 6.63926 10.2875C6.83092 10.4792 6.92676 10.7167 6.92676 11C6.92676 11.2833 6.83092 11.5208 6.63926 11.7125C6.44759 11.9042 6.21009 12 5.92676 12ZM13.9268 12C13.6434 12 13.4059 11.9042 13.2143 11.7125C13.0226 11.5208 12.9268 11.2833 12.9268 11C12.9268 10.7167 13.0226 10.4792 13.2143 10.2875C13.4059 10.0958 13.6434 10 13.9268 10C14.2101 10 14.4476 10.0958 14.6393 10.2875C14.8309 10.4792 14.9268 10.7167 14.9268 11C14.9268 11.2833 14.8309 11.5208 14.6393 11.7125C14.4476 11.9042 14.2101 12 13.9268 12ZM9.92676 16C9.64342 16 9.40592 15.9042 9.21426 15.7125C9.02259 15.5208 8.92676 15.2833 8.92676 15C8.92676 14.7167 9.02259 14.4792 9.21426 14.2875C9.40592 14.0958 9.64342 14 9.92676 14C10.2101 14 10.4476 14.0958 10.6393 14.2875C10.8309 14.4792 10.9268 14.7167 10.9268 15C10.9268 15.2833 10.8309 15.5208 10.6393 15.7125C10.4476 15.9042 10.2101 16 9.92676 16ZM5.92676 16C5.64342 16 5.40592 15.9042 5.21426 15.7125C5.02259 15.5208 4.92676 15.2833 4.92676 15C4.92676 14.7167 5.02259 14.4792 5.21426 14.2875C5.40592 14.0958 5.64342 14 5.92676 14C6.21009 14 6.44759 14.0958 6.63926 14.2875C6.83092 14.4792 6.92676 14.7167 6.92676 15C6.92676 15.2833 6.83092 15.5208 6.63926 15.7125C6.44759 15.9042 6.21009 16 5.92676 16ZM13.9268 16C13.6434 16 13.4059 15.9042 13.2143 15.7125C13.0226 15.5208 12.9268 15.2833 12.9268 15C12.9268 14.7167 13.0226 14.4792 13.2143 14.2875C13.4059 14.0958 13.6434 14 13.9268 14C14.2101 14 14.4476 14.0958 14.6393 14.2875C14.8309 14.4792 14.9268 14.7167 14.9268 15C14.9268 15.2833 14.8309 15.5208 14.6393 15.7125C14.4476 15.9042 14.2101 16 13.9268 16Z" fill="#0B2B35"/>
</svg>
