<svg width="32" height="32" viewBox="0 0 32 32" fill="none" xmlns="http://www.w3.org/2000/svg">
<g clip-path="url(#clip0_3755_293)">
<mask id="mask0_3755_293" style="mask-type:alpha" maskUnits="userSpaceOnUse" x="-1" y="-1" width="34" height="34">
<rect x="-1" y="16" width="24" height="24" transform="rotate(-45 -1 16)" fill="#D9D9D9"/>
</mask>
<g mask="url(#mask0_3755_293)">
<path d="M16.8191 20.8083L17.3141 17.3435L20.7436 16.8839L17.5969 15.2222L18.0212 11.6866L15.617 14.0908L12.4351 12.4644L14.0614 15.6464L11.6572 18.0506L15.1574 17.6617L16.8191 20.8083ZM15.9706 27.3137C15.5817 27.7026 15.1103 27.897 14.5564 27.897C14.0025 27.897 13.5311 27.7026 13.1422 27.3137L10.7557 24.9272C10.626 24.7976 10.5553 24.6444 10.5436 24.4676C10.5318 24.2908 10.5789 24.1258 10.685 23.9726C10.8735 23.5955 10.9354 23.1918 10.8706 22.7617C10.8058 22.3315 10.6202 21.9632 10.3137 21.6568C10.0073 21.3504 9.63905 21.1648 9.20889 21.1C8.77873 21.0352 8.37509 21.097 7.99797 21.2856C7.84476 21.3917 7.67977 21.4388 7.50299 21.427C7.32622 21.4152 7.17301 21.3445 7.04337 21.2149L4.65689 18.8284C4.26798 18.4395 4.07353 17.9681 4.07353 17.4142C4.07353 16.8603 4.26798 16.3889 4.65689 16L15.9706 4.68626C16.3595 4.29735 16.8309 4.1029 17.3848 4.1029C17.9387 4.1029 18.4101 4.29735 18.799 4.68626L21.1855 7.07275C21.3151 7.20238 21.3859 7.35559 21.3976 7.53237C21.4094 7.70914 21.3623 7.87414 21.2562 8.02734C21.0677 8.40447 21.0058 8.80811 21.0706 9.23826C21.1354 9.66842 21.321 10.0367 21.6275 10.3431C21.9339 10.6495 22.3021 10.8351 22.7323 10.9C23.1625 10.9648 23.5661 10.9029 23.9432 10.7143C24.0964 10.6083 24.2614 10.5611 24.4382 10.5729C24.615 10.5847 24.7682 10.6554 24.8978 10.7851L27.2843 13.1715C27.6732 13.5605 27.8677 14.0319 27.8677 14.5858C27.8677 15.1397 27.6732 15.6111 27.2843 16L15.9706 27.3137ZM14.5564 25.8995L25.8701 14.5858L24.067 12.7826C23.3716 12.9594 22.6822 12.9594 21.9987 12.7826C21.3151 12.6059 20.72 12.2641 20.2132 11.7573C19.7065 11.2506 19.3647 10.6554 19.1879 9.97189C19.0112 9.28835 19.0112 8.59892 19.1879 7.9036L17.3848 6.10048L6.0711 17.4142L7.87423 19.2173C8.56955 19.0405 9.25898 19.0405 9.94251 19.2173C10.626 19.3941 11.2212 19.7359 11.728 20.2426C12.2347 20.7494 12.5765 21.3445 12.7533 22.0281C12.93 22.7116 12.93 23.401 12.7533 24.0963L14.5564 25.8995Z" fill="#1C1B1F"/>
</g>
</g>
<defs>
<clipPath id="clip0_3755_293">
<rect width="32" height="32" fill="white"/>
</clipPath>
</defs>
</svg>
